<svg xmlns:xlink="http://www.w3.org/1999/xlink" xmlns="http://www.w3.org/2000/svg" preserveAspectRatio="xMidYMid meet" class="css-116ckqy" id="bgdfgbhc" viewBox="0 10 378.41 82.73"><defs id="SvgjsDefs1001"/><g id="SvgjsG1007" featurekey="symbolFeature-0" transform="matrix(1,0,0,1,-8.5,1.364654541015625)" fill="#111111"><path xmlns="http://www.w3.org/2000/svg" d="M32.628212,8.6361885c-1.3350086,2.6396627-2.1030216,5.61516-2.1008072,8.7757549  c0.0030556,8.8963432,5.9801903,16.3825207,14.1322403,18.705534c3.6843719-7.3044529,2.4856567-16.4400749-3.6176529-22.5373764  C38.6159935,11.1556845,35.708065,9.5134058,32.628212,8.6361885z" fill="#111111"/><path xmlns="http://www.w3.org/2000/svg" d="M36.6367226,44.4209976c-2.2498589-8.2716866-9.7946415-14.3607674-18.7788963-14.3561306  C14.4649076,30.0661316,11.2771158,30.9387112,8.5,32.4654617c0.8604574,3.1732445,2.5209713,6.1744614,5.014431,8.6644402  C19.7794399,47.3903809,29.2442551,48.4790459,36.6367226,44.4209976z" fill="#111111"/><path xmlns="http://www.w3.org/2000/svg" d="M55.8574944,63.100174c-4.2872086,7.4469681-3.2679024,17.1136398,3.1020927,23.474884  c2.2940254,2.2922363,5.0209694,3.880127,7.9149857,4.7891769c1.6449127-2.858284,2.5996017-6.1639252,2.5978088-9.6987228  C69.4694366,72.9555359,63.745388,65.5863647,55.8574944,63.100174z" fill="#111111"/><path xmlns="http://www.w3.org/2000/svg" d="M63.6276436,55.5768967c2.5443764,7.7994499,9.8681145,13.438858,18.5163231,13.4329529  c3.2794952-0.0010529,6.3647232-0.8215637,9.0758514-2.254921c-0.9208527-2.8249702-2.486496-5.485714-4.7325592-7.7296715  C80.2964554,52.8389931,70.9795303,51.6921387,63.6276436,55.5768967z" fill="#111111"/><path xmlns="http://www.w3.org/2000/svg" d="M30.5274048,81.6813278c0.0012646,3.5291061,0.9556408,6.8292618,2.5986557,9.6833267  c2.8991814-0.9107361,5.6306572-2.5032654,7.9271049-4.8024521c6.3580856-6.3627243,7.3740196-16.0220184,3.0891266-23.4626579  C36.2468147,65.587204,30.5213947,72.9648132,30.5274048,81.6813278z" fill="#111111"/><path xmlns="http://www.w3.org/2000/svg" d="M36.3721466,55.576683c-7.3567352-3.8893929-16.6797752-2.7372704-22.8689957,3.4578514  c-2.241004,2.242691-3.8027496,4.9006958-4.72192,7.7218742c2.7157688,1.4356766,5.8073206,2.2557602,9.0932493,2.2534409  C26.5151005,69.006897,33.8301964,63.3696022,36.3721466,55.576683z" fill="#111111"/><path xmlns="http://www.w3.org/2000/svg" d="M69.4723816,17.3963432c-0.0010529-3.1555357-0.7696991-6.1255512-2.1030197-8.7609978  c-3.0833282,0.8789034-5.9938965,2.5245552-8.4208412,4.9538212c-6.0945625,6.0989876-7.2872696,15.2284966-3.6074257,22.5278873  C63.4990463,33.7925644,69.4770203,26.2994328,69.4723816,17.3963432z" fill="#111111"/><path xmlns="http://www.w3.org/2000/svg" d="M63.3639107,44.4203644c7.3991051,4.060791,16.8699303,2.9689598,23.1346245-3.3035316  c2.4859772-2.4876633,4.1424866-5.4840279,5.0014648-8.6517944c-2.7815399-1.5288563-5.9742889-2.4018574-9.3726883-2.4001713  C73.1491699,30.0682411,65.6136627,36.1560555,63.3639107,44.4203644z" fill="#111111"/></g><g id="SvgjsG1008" featurekey="vMvB0T-0" transform="matrix(2.9230909850424953,0,0,2.9230909850424953,102.12307493462869,12.344530561850402)" fill="#111111"><path d="M0.3 18.82 q0.06 -0.66 0.41 -1.32 t0.83 -1.08 q2.14 1.3 4.06 1.3 q0.84 0 1.23 -0.38 t0.39 -0.94 q0 -0.94 -1.26 -1.48 l-2.36 -1 q-1.38 -0.62 -2.12 -1.49 t-0.74 -2.21 q0 -0.92 0.37 -1.68 t1.04 -1.32 t1.59 -0.87 t2.04 -0.31 q2.24 0 4.52 1.14 q-0.1 1.54 -1.08 2.4 q-2.04 -0.98 -3.6 -0.98 q-0.8 0 -1.2 0.36 t-0.4 0.82 q0 0.78 1.18 1.26 l2.4 1.02 q1.52 0.64 2.27 1.64 t0.75 2.32 q0 0.94 -0.34 1.72 t-1.01 1.35 t-1.67 0.89 t-2.34 0.32 q-2.6 0 -4.96 -1.48 z M17.84 8.98 l0.02 1.48 l0 9.54 q-0.68 0.12 -1.62 0.12 t-1.58 -0.12 l0 -11.02 l-1.28 0.02 l-2.06 0 q-0.12 -0.58 -0.12 -1.33 t0.12 -1.33 l9.9 0 q0.16 0.52 0.16 1.26 t-0.4 1.07 t-1.28 0.33 l-0.58 0 l-1.26 -0.02 l-0.02 0 z M25.460000000000004 16.28 q0.54 1.56 2.18 1.56 q0.82 0 1.33 -0.41 t0.8 -1.04 t0.39 -1.41 t0.1 -1.54 q0 -0.7 -0.05 -1.56 t-0.29 -1.61 t-0.76 -1.26 t-1.52 -0.51 q-0.96 0 -1.47 0.49 t-0.76 1.21 t-0.31 1.53 t-0.06 1.43 q0 0.92 0.09 1.64 t0.33 1.48 z M23.840000000000003 19.04 q-2.14 -1.78 -2.14 -5.86 q0 -1.76 0.41 -3.09 t1.18 -2.23 t1.87 -1.36 t2.48 -0.46 t2.49 0.46 t1.88 1.37 t1.18 2.24 t0.41 3.07 t-0.41 3.07 t-1.18 2.23 t-1.88 1.36 t-2.49 0.46 q-2.28 0 -3.8 -1.26 z M45.64000000000001 10.56 q0 0.66 -0.2 1.25 t-0.53 1.06 t-0.78 0.82 t-0.93 0.53 q1.04 0.38 1.54 1.84 l0.6 1.7 q0.34 1 1 1.48 q-0.3 0.4 -0.9 0.67 t-1.32 0.27 t-1.12 -0.41 t-0.74 -1.43 l-0.72 -2.1 q-0.22 -0.6 -0.59 -0.92 t-1.11 -0.32 l-0.82 0 l0 5 q-0.64 0.12 -1.6 0.12 t-1.58 -0.12 l0 -13.56 l0.14 -0.14 q1.74 -0.04 2.93 -0.06 t1.87 -0.02 q1.1 0 2 0.27 t1.53 0.81 t0.98 1.36 t0.35 1.9 z M39.02000000000001 8.62 l0 3.92 q0.9 0 1.54 -0.03 t1.03 -0.24 t0.59 -0.59 t0.2 -1.1 q0 -1.94 -1.88 -1.94 l-0.83 0 t-0.65 -0.02 z M51.28 15.96 l-0.02 1.44 l0 0.02 q0.92 -0.04 1.48 -0.04 l4.64 0 q0 0.74 -0.06 1.14 q-0.24 1.54 -2.04 1.54 l-5.32 0 q-0.86 0 -1.35 -0.5 t-0.49 -1.36 l0 -11.72 l0.14 -0.14 l8.62 0 q0.12 0.58 0.12 1.26 t-0.28 1.42 l-5.46 0 l0.02 1.44 l0 1.4 q0.52 -0.02 1.36 -0.02 l3.06 0 q0.18 0.56 0.18 1.28 t-0.18 1.32 l-4.42 0 l0 1.52 z M64.38000000000001 15.719999999999999 l-1.58 0 l0 4.28 q-0.64 0.12 -1.6 0.12 q-0.98 0 -1.6 -0.12 l0 -13.56 l0.14 -0.14 q1.74 -0.04 2.89 -0.06 t1.75 -0.02 q1.1 0 2.01 0.3 t1.55 0.9 t0.99 1.49 t0.35 2.05 t-0.36 2.05 t-1 1.49 t-1.55 0.91 t-1.99 0.31 z M62.800000000000004 8.66 l0 4.66 q0.56 -0.02 0.89 -0.03 t0.43 -0.01 q0.54 0 0.9 -0.19 t0.58 -0.5 t0.32 -0.73 t0.1 -0.88 q0 -0.44 -0.1 -0.86 t-0.31 -0.74 t-0.55 -0.51 t-0.8 -0.19 l-0.82 0 t-0.64 -0.02 z M81.18 10.56 q0 0.66 -0.2 1.25 t-0.53 1.06 t-0.78 0.82 t-0.93 0.53 q1.04 0.38 1.54 1.84 l0.6 1.7 q0.34 1 1 1.48 q-0.3 0.4 -0.9 0.67 t-1.32 0.27 t-1.12 -0.41 t-0.74 -1.43 l-0.72 -2.1 q-0.22 -0.6 -0.59 -0.92 t-1.11 -0.32 l-0.82 0 l0 5 q-0.64 0.12 -1.6 0.12 t-1.58 -0.12 l0 -13.56 l0.14 -0.14 q1.74 -0.04 2.93 -0.06 t1.87 -0.02 q1.1 0 2 0.27 t1.53 0.81 t0.98 1.36 t0.35 1.9 z M74.56 8.62 l0 3.92 q0.9 0 1.54 -0.03 t1.03 -0.24 t0.59 -0.59 t0.2 -1.1 q0 -1.94 -1.88 -1.94 l-0.83 0 t-0.65 -0.02 z M86.38 16.28 q0.54 1.56 2.18 1.56 q0.82 0 1.33 -0.41 t0.8 -1.04 t0.39 -1.41 t0.1 -1.54 q0 -0.7 -0.05 -1.56 t-0.29 -1.61 t-0.76 -1.26 t-1.52 -0.51 q-0.96 0 -1.47 0.49 t-0.76 1.21 t-0.31 1.53 t-0.06 1.43 q0 0.92 0.09 1.64 t0.33 1.48 z M84.75999999999999 19.04 q-2.14 -1.78 -2.14 -5.86 q0 -1.76 0.41 -3.09 t1.18 -2.23 t1.87 -1.36 t2.48 -0.46 t2.49 0.46 t1.88 1.37 t1.18 2.24 t0.41 3.07 t-0.41 3.07 t-1.18 2.23 t-1.88 1.36 t-2.49 0.46 q-2.28 0 -3.8 -1.26 z" fill="#111111"/></g></svg>