<svg xmlns="http://www.w3.org/2000/svg" xmlns:xlink="http://www.w3.org/1999/xlink" id="svg" viewBox="14.5 49.87 368.9 300.13"><g id="svgg"><path id="path0" d="M19.143 53.143 C 7.763 64.523,18.268 76.000,40.063 76.000 C 63.075 76.000,60.301 69.622,78.260 163.852 C 102.541 291.254,92.401 282.747,221.000 283.589 C 355.724 284.471,347.591 290.505,369.993 173.036 C 385.623 91.076,385.567 91.567,380.000 86.000 C 376.075 82.075,373.333 82.000,233.159 82.000 L 90.318 82.000 88.967 75.851 C 87.227 67.930,76.869 56.159,68.595 52.702 C 59.018 48.701,23.267 49.019,19.143 53.143 M353.201 115.500 C 352.586 118.525,347.073 147.550,340.949 180.000 C 324.893 265.080,337.060 257.000,225.000 257.000 C 112.940 257.000,125.107 265.080,109.051 180.000 C 102.927 147.550,97.414 118.525,96.799 115.500 L 95.682 110.000 225.000 110.000 L 354.318 110.000 353.201 115.500 M150.287 305.065 C 131.658 320.740,142.036 350.000,166.224 350.000 C 186.919 350.000,198.591 330.547,189.011 312.022 C 182.205 298.860,161.980 295.227,150.287 305.065 M267.688 304.510 C 248.118 321.054,258.355 350.000,283.776 350.000 C 307.668 350.000,318.176 320.601,299.809 305.146 C 291.530 298.180,275.551 297.863,267.688 304.510 " stroke="none" fill="#000000" fill-rule="evenodd"/></g></svg>