<svg xmlns="http://www.w3.org/2000/svg" xmlns:xlink="http://www.w3.org/1999/xlink" id="svg" viewBox="32.51 32.09 335.04 335.11"><g id="svgg"><path id="path0" d="M175.000 34.039 C 44.003 53.966,-13.538 213.987,75.160 311.690 C 157.563 402.461,306.405 378.167,354.065 266.167 C 405.148 146.123,303.596 14.478,175.000 34.039 M232.000 63.113 C 317.895 83.287,364.165 178.627,327.067 259.000 C 277.281 366.861,123.050 366.657,72.712 258.663 C 23.924 153.995,119.481 36.684,232.000 63.113 M176.460 104.130 C 142.524 121.326,139.900 170.575,171.728 192.944 C 184.742 202.090,215.258 202.090,228.272 192.944 C 257.876 172.137,257.878 127.870,228.276 107.056 C 216.486 98.766,189.998 97.271,176.460 104.130 M211.830 128.912 C 232.762 139.736,223.772 174.000,200.000 174.000 C 190.935 174.000,182.991 169.128,179.270 161.286 C 168.774 139.168,190.292 117.774,211.830 128.912 M130.123 219.655 C 119.345 225.435,115.660 234.209,116.394 252.338 C 119.484 328.652,280.516 328.652,283.606 252.338 C 284.340 234.209,280.655 225.435,269.877 219.655 C 259.496 214.088,140.504 214.088,130.123 219.655 M256.778 250.426 C 255.537 292.032,142.068 291.446,142.007 249.833 C 141.996 241.834,141.410 241.908,200.864 242.469 L 257.000 243.000 256.778 250.426 " stroke="none" fill="#000000" fill-rule="evenodd"/></g></svg>